<svg xmlns="http://www.w3.org/2000/svg" xmlns:xlink="http://www.w3.org/1999/xlink" viewBox="0 0 9.82 8.83"><defs><style>.cls-1{fill:url(#linear-gradient);}</style><linearGradient id="linear-gradient" y1="4.41" x2="9.82" y2="4.41" gradientUnits="userSpaceOnUse"><stop offset="0" stop-color="#00486a"/><stop offset="1" stop-color="#16292a"/></linearGradient></defs><title>Asset 3</title><g id="Layer_2" data-name="Layer 2"><g id="Layer_1-2" data-name="Layer 1"><path class="cls-1" d="M9.81,3.65v.09A.51.51,0,0,1,9.57,4l-1.16.67-1.78,1-1.45.84-1.29.74-1.15.66-1,.56-.51.28A.25.25,0,0,1,.9,8.71V8.63a1.93,1.93,0,0,1,.21-.56l.53-.94.81-1.42a3.78,3.78,0,0,0,.46-1.09,1.17,1.17,0,0,0,0-.6,2.77,2.77,0,0,0-.54-.93c-.2-.24-.4-.47-.61-.71L.83,1.33A5.18,5.18,0,0,1,0,.25V.13A.19.19,0,0,1,.23,0L.6.11,2.87.95l2,.75,2.57.95,2,.73A.61.61,0,0,1,9.81,3.65Z"/></g></g></svg>