<svg xmlns="http://www.w3.org/2000/svg" viewBox="0 0 20 19.96"><defs><style>.cls-1{fill:#2e364f;}</style></defs><title>Alert</title><g id="Layer_2" data-name="Layer 2"><g id="Layer_1-2" data-name="Layer 1"><path class="cls-1" d="M18.77,14.51h0l-.83-.62a.6.6,0,0,1-.28-.55c0-.6,0-1.2,0-1.8V9.88c0-.32,0-.63,0-1V8.27a11.68,11.68,0,0,0-.08-1.66,7.66,7.66,0,0,0-15.24.9c0,1.63,0,3.29,0,4.9v.88A.64.64,0,0,1,2,13.9c-.28.2-.55.41-.75.57A2.94,2.94,0,0,0,0,17.07c0,.58.18.87.91.87H6.76A3.52,3.52,0,0,0,10,20a3.45,3.45,0,0,0,3.23-2h5.94a.72.72,0,0,0,.81-.68A3,3,0,0,0,18.77,14.51ZM8.47,18h3a2.46,2.46,0,0,1-1.58.59A2.32,2.32,0,0,1,8.47,18ZM3.74,11.48c0-1.24,0-2.52,0-3.78A6,6,0,0,1,7.21,2.07a6.21,6.21,0,0,1,8.93,4.48,6.62,6.62,0,0,1,.1,1.29c0,1.82,0,3.68,0,5.48a2,2,0,0,0,.87,1.73l.21.16c.2.14.41.29.6.45a1.73,1.73,0,0,1,.61.84H1.46a1.64,1.64,0,0,1,.6-.84c.17-.14.35-.27.59-.44l.26-.2a2,2,0,0,0,.83-1.65Z"/></g></g></svg>