<svg xmlns="http://www.w3.org/2000/svg" viewBox="0 0 21.61 26.48"><defs><style>.cls-1{fill:#fff;}</style></defs><title>Asset 9</title><g id="Layer_2" data-name="Layer 2"><g id="Layer_1-2" data-name="Layer 1"><path class="cls-1" d="M20.92,9a5.89,5.89,0,0,0,.69,10.45l-.12.35a15.43,15.43,0,0,1-3,5.11,4,4,0,0,1-2.28,1.47,3.72,3.72,0,0,1-1.88-.2c-.61-.2-1.21-.46-1.83-.63a5.29,5.29,0,0,0-3.36.31c-.48.19-1,.36-1.46.5a2.73,2.73,0,0,1-2.46-.5A9.1,9.1,0,0,1,3.43,24,16.46,16.46,0,0,1,.18,16.44a10.31,10.31,0,0,1,.55-5.86,6.56,6.56,0,0,1,4.61-4,5.27,5.27,0,0,1,3.1.21l2,.71a1.45,1.45,0,0,0,1,0c.84-.3,1.69-.6,2.54-.87a6.36,6.36,0,0,1,6.72,2.1Z"/><path class="cls-1" d="M16.09,0a5.13,5.13,0,0,1-.47,2.78,5.79,5.79,0,0,1-3.09,3.08,3.71,3.71,0,0,1-1.72.23C10.39,3.58,12.73.27,16.09,0Z"/></g></g></svg>