<svg xmlns="http://www.w3.org/2000/svg" viewBox="0 0 36.83 33"><defs><style>.cls-1{fill:#fa615b;}</style></defs><title>Asset 8</title><g id="Layer_2" data-name="Layer 2"><g id="Layer_1-2" data-name="Layer 1"><rect class="cls-1" x="26.83" y="23" width="2.33" height="2.33"/><rect class="cls-1" x="26.83" y="15.33" width="2.33" height="2.33"/><path class="cls-1" d="M17.67,0H0V33H36.83V7.67H17.67V0Zm-10,26.08v4.58H2.33V25.33H7.67Zm0-7.67V23H2.33V17.67H7.67Zm0-7.67v4.58H2.33V10H7.67Zm0-7.67V7.67H2.33V2.33H7.67Zm7.67,23v4.58H10V25.33h5.33Zm0-7.67V23H10V17.67h5.33Zm0-7.67v4.58H10V10h5.33Zm0-7.67V7.67H10V2.33h5.33ZM18.42,10H34.5V30.67H17.67V25.33H21.5V23H17.67V17.67H21.5V15.33H17.67V10Z"/></g></g></svg>