<svg xmlns="http://www.w3.org/2000/svg" viewBox="0 0 512 512"><defs><style>.cls-1{fill:#fff;}</style></defs><title>chronometer</title><g id="Layer_2" data-name="Layer 2"><g id="Capa_1" data-name="Capa 1"><path class="cls-1" d="M256,0a8.53,8.53,0,0,1,8.53,8.53V122a8.53,8.53,0,1,1-17.07,0V17.22C119.65,21.73,17.07,127.11,17.07,256c0,131.75,107.19,238.93,238.93,238.93S494.93,387.75,494.93,256A237.42,237.42,0,0,0,425.25,87.35a8.53,8.53,0,1,1,12.08-12A254.35,254.35,0,0,1,512,256c0,141.16-114.84,256-256,256S0,397.16,0,256,114.84,0,256,0Z"/><path class="cls-1" d="M268.33,286.14a30.41,30.41,0,1,1-42.45-42.49l110.46-79.9a8.54,8.54,0,0,1,11.92,11.92Z"/></g></g></svg>