<svg xmlns="http://www.w3.org/2000/svg" viewBox="0 0 54.36 43.03"><defs><style>.cls-1{fill:#fa615b;}</style></defs><title>Asset 10</title><g id="Layer_2" data-name="Layer 2"><g id="Layer_1-2" data-name="Layer 1"><path class="cls-1" d="M28.21,0A18.85,18.85,0,0,0,23.1.73a17.43,17.43,0,0,0-5.62,2.66,11.35,11.35,0,0,0-5,8,13.42,13.42,0,0,0-9.83,5.51A13,13,0,0,0,.37,27.92,13.55,13.55,0,0,0,13.5,38.49q.61,0,1.22-.06V36.31c-1-.09-2.06-.11-3-.27a11.31,11.31,0,0,1,1.72-22.46c.95,0,1.33-.4,1.35-1.32a8,8,0,0,1,2-5.12,13.42,13.42,0,0,1,6-3.93,16.51,16.51,0,0,1,5.42-.95A14.27,14.27,0,0,1,40,8.5a16.59,16.59,0,0,1,3,10.39c0,1.08.33,1.41,1.39,1.49a7.93,7.93,0,0,1,5.15,13.69A7.89,7.89,0,0,1,44,36.23H40.8V38.4c1,0,2,.06,2.92.06a15.53,15.53,0,0,0,1.7-.08,10.16,10.16,0,0,0,1.2-20c-.42-.1-.86-.18-1.2-.25-.21-1.47-.32-2.9-.62-4.29C43.16,6.35,36.76,0,28.21,0Z"/><path class="cls-1" d="M30.6,19.25l-5.58,0a1.56,1.56,0,0,0-1,.41q-2.77,2.7-5.48,5.48a1.72,1.72,0,0,0-.41,1c-.06.66,0,1.34,0,2q0,6.74,0,13.47c0,1,.4,1.41,1.41,1.41H34.78c1.09,0,1.46-.38,1.46-1.47q0-5.2,0-10.4t0-10.61c0-.88-.39-1.29-1.25-1.29ZM23,28.31h2.83c.92,0,1.33-.42,1.34-1.32,0-1.8,0-3.6,0-5.42H34V40.71H20.44V28.31H23ZM22.49,26H21l3.91-3.89c0,1.2,0,2.43,0,3.65,0,.08-.17.23-.26.23Z"/><path class="cls-1" d="M27.19,29.43a1.39,1.39,0,0,0-1,.49L23.12,33A1.14,1.14,0,0,0,23,34.76a1.05,1.05,0,0,0,.76.33,1.42,1.42,0,0,0,1-.46c.41-.4.81-.82,1.32-1.34V34c0,1.47,0,2.93,0,4.4a1.16,1.16,0,0,0,1.13,1.26h0a1.17,1.17,0,0,0,1.13-1.23c0-.21,0-.42,0-.64V33.47l.14-.07c.4.42.79.84,1.2,1.25a1.36,1.36,0,0,0,.95.45,1.07,1.07,0,0,0,.75-.32A1.14,1.14,0,0,0,31.27,33L28.12,29.9a1.35,1.35,0,0,0-.93-.47Z"/></g></g></svg>