<svg xmlns="http://www.w3.org/2000/svg" viewBox="0 0 26.6 28.35"><defs><style>.cls-1{fill:#c1c5c8;}</style></defs><title>Asset 7</title><g id="Layer_2" data-name="Layer 2"><g id="Layer_1-2" data-name="Layer 1"><path class="cls-1" d="M12.4,19.93c0-.17,0-.28,0-.38q0-9.21,0-18.42a2,2,0,0,1,0-.52A.86.86,0,0,1,13.34,0a.85.85,0,0,1,.8.65,2,2,0,0,1,0,.44q0,9.21,0,18.42v.42l.29-.26,5.22-5a1,1,0,0,1,.8-.35A.88.88,0,0,1,21,15.79l-1.44,1.39-5.51,5.33a.94.94,0,0,1-1.55,0L5.7,15.93a1,1,0,0,1-.4-.84.84.84,0,0,1,.56-.76.85.85,0,0,1,.95.21l2.07,2,3.32,3.2Z"/><path class="cls-1" d="M1.77,26.58H24.83c0-.11,0-.21,0-.32q0-2.06,0-4.11a.88.88,0,0,1,.87-1,.89.89,0,0,1,.89,1q0,2.6,0,5.2a.89.89,0,0,1-1,1H1a.89.89,0,0,1-1-1q0-2.6,0-5.2a.89.89,0,0,1,.7-1,.87.87,0,0,1,1.06.91c0,.92,0,1.84,0,2.76C1.77,25.42,1.77,26,1.77,26.58Z"/></g></g></svg>