<svg xmlns="http://www.w3.org/2000/svg" xmlns:xlink="http://www.w3.org/1999/xlink" viewBox="0 0 17.41 17.41"><defs><style>.cls-1{fill:url(#linear-gradient);}.cls-2{fill:url(#linear-gradient-2);}</style><linearGradient id="linear-gradient" y1="8.7" x2="17.41" y2="8.7" gradientUnits="userSpaceOnUse"><stop offset="0" stop-color="#00486a"/><stop offset="1" stop-color="#16292a"/></linearGradient><linearGradient id="linear-gradient-2" x1="7.98" y1="4.74" x2="17.41" y2="4.74" xlink:href="#linear-gradient"/></defs><title>Asset 10</title><g id="Layer_2" data-name="Layer 2"><g id="Layer_1-2" data-name="Layer 1"><path class="cls-1" d="M8.71,17.4c-1.78,0-3.56,0-5.34,0A3.49,3.49,0,0,1,0,14C0,11.65,0,9.34,0,7,0,5.88,0,4.74,0,3.59A3.52,3.52,0,0,1,2.62.13,3.49,3.49,0,0,1,3.56,0C5.13,0,6.71,0,8.28,0c.36,0,.56.17.57.46S8.64,1,8.28,1H3.74a2.7,2.7,0,0,0-2,.76A2.6,2.6,0,0,0,1,3.64C1,7,1,10.38,1,13.75a2.61,2.61,0,0,0,2,2.62,3.49,3.49,0,0,0,.69.07h10a2.57,2.57,0,0,0,2.63-1.77,3.09,3.09,0,0,0,.13-1c0-1.47,0-2.94,0-4.42a1.7,1.7,0,0,1,0-.43A.44.44,0,0,1,17,8.53.45.45,0,0,1,17.4,9c0,.27,0,.55,0,.82,0,1.33,0,2.65,0,4a3.57,3.57,0,0,1-3,3.58,10.54,10.54,0,0,1-1.59.05H8.71Z"/><path class="cls-2" d="M15.72,1l-.34,0H12.22c-.34,0-.53-.22-.52-.51s.2-.45.54-.45h4.6c.4,0,.57.18.57.58q0,2.27,0,4.54c0,.36-.18.57-.48.57s-.48-.2-.48-.57c0-1,0-2,0-3,0-.11,0-.22,0-.39l-.3.26L8.88,9.21a1,1,0,0,1-.43.25A.36.36,0,0,1,8,9.22a.93.93,0,0,1,0-.5c0-.1.15-.18.24-.26l7.17-7.17Z"/></g></g></svg>