<svg xmlns="http://www.w3.org/2000/svg" viewBox="0 0 15.26 18.83"><defs><style>.cls-1{opacity:0.8;}.cls-2{fill:#eceef4;}.cls-3{fill:none;stroke:#9098b8;stroke-miterlimit:10;}.cls-4{fill:#9098b8;}</style></defs><title>file</title><g id="Layer_2" data-name="Layer 2"><g id="Layer_1-2" data-name="Layer 1"><g class="cls-1"><path class="cls-2" d="M2.28.5A1.78,1.78,0,0,0,.51,2.28V16.55a1.78,1.78,0,0,0,1.77,1.78H13a1.79,1.79,0,0,0,1.78-1.78V5.85L9.41.5Z"/><path class="cls-3" d="M2.28.5A1.78,1.78,0,0,0,.51,2.28V16.55a1.78,1.78,0,0,0,1.77,1.78H13a1.79,1.79,0,0,0,1.78-1.78V5.85L9.41.5Z"/><polygon class="cls-4" points="8.72 6.76 8.72 1.86 13.63 6.76 8.72 6.76"/></g></g></g></svg>