<svg xmlns="http://www.w3.org/2000/svg" viewBox="0 0 23.25 23.25"><defs><style>.cls-1{fill:#fff;}</style></defs><title>Asset 7</title><g id="Layer_2" data-name="Layer 2"><g id="Layer_1-2" data-name="Layer 1"><path class="cls-1" d="M0,11.63A11.71,11.71,0,0,1,11.59,0,11.7,11.7,0,0,1,23.25,11.59a11.71,11.71,0,0,1-11.6,11.66A11.72,11.72,0,0,1,0,11.63ZM11.62,22.27A10.56,10.56,0,0,0,22.27,11.74,10.55,10.55,0,0,0,11.7,1,10.56,10.56,0,0,0,1,11.59,10.56,10.56,0,0,0,11.62,22.27Z"/><path class="cls-1" d="M6.56,7.24a3.19,3.19,0,0,1-2,1.26,1.09,1.09,0,0,1-.77-.08.88.88,0,0,1-.51-.69,2.71,2.71,0,0,1,.09-1.24c.15-.5.32-1,.49-1.47a.45.45,0,0,1,.5-.3.45.45,0,0,1,.41.37.84.84,0,0,1,0,.36c-.15.5-.32,1-.46,1.48a1,1,0,0,0,0,.66A3.42,3.42,0,0,0,5.48,7a.35.35,0,0,1,.39-.1.25.25,0,0,0,.16,0l-.22-.13c-.08,0-.1-.08-.05-.17l.72-1.26A.48.48,0,0,1,7,5.11a.5.5,0,0,1,.38.47c0,.55.09,1.11.14,1.66a.55.55,0,0,0,.17.42c.09-.39.15-.77.25-1.13a9.91,9.91,0,0,1,.41-1.24,1,1,0,0,1,1-.61l1.11-.09a1.8,1.8,0,0,1,1,.19,1.75,1.75,0,0,1,.89,1.37,7.29,7.29,0,0,1,.05,1.08.73.73,0,0,1-.79.74h-.14a1,1,0,0,0-1.1,1c-.05.42,0,.42.36.55.72.23,1.45.47,2.16.74A3.5,3.5,0,0,1,15,12.49a8,8,0,0,1,.38,2.26c0,.55,0,1.11.06,1.67,0,.34.1.68.16,1.06l.21-.17A8.43,8.43,0,0,0,17,15.8,11.73,11.73,0,0,0,18,13.69a2.42,2.42,0,0,0,.05-2,3.3,3.3,0,0,1-.19-.68,1.11,1.11,0,0,1,.47-1.24c.27-.19.57-.34.84-.52a6.19,6.19,0,0,0,.68-.53.88.88,0,0,0,.29-.68.48.48,0,0,1,.49-.49.5.5,0,0,1,.49.51,1.78,1.78,0,0,1-.43,1.13,4.45,4.45,0,0,1-1.57,1.2c-.36.18-.39.23-.27.62a5.17,5.17,0,0,0,.19.55,2.46,2.46,0,0,1,.07,1.62,10.1,10.1,0,0,1-1.36,3,19.11,19.11,0,0,1-1.17,1.61,2.52,2.52,0,0,1-.67.56.69.69,0,0,1-.91-.15,1.78,1.78,0,0,1-.49-1c-.07-.53-.12-1.07-.13-1.61a13.64,13.64,0,0,0-.15-2.07,3.56,3.56,0,0,0-.68-1.63,2.33,2.33,0,0,0-1-.76c-.74-.26-1.5-.51-2.25-.75a1.23,1.23,0,0,1-.83-.92A2.06,2.06,0,0,1,11.3,7c.11,0,.15,0,.13-.14s0-.46-.08-.69c-.07-.41-.23-.55-.65-.55s-.6,0-.91.06l-.26,0c-.26,0-.34.06-.41.3s-.16.63-.24.94-.15.7-.23,1.05a1,1,0,0,1-.82.82.66.66,0,0,1-.48-.11,1.56,1.56,0,0,1-.72-1.15c0-.07,0-.13,0-.2Z"/><path class="cls-1" d="M6.55,14.18l-.85-.33A6.42,6.42,0,0,1,5,13.55a6.3,6.3,0,0,1-.57-.39l-1.08-.76c-.05.19-.11.35-.14.51-.09.51-.17,1-.23,1.54a.49.49,0,0,1-.52.47A.47.47,0,0,1,2,14.41,9.3,9.3,0,0,1,2.52,12a1,1,0,0,1,.62-.62.6.6,0,0,1,.54.07l.82.53a3.08,3.08,0,0,1,.51.4,2.4,2.4,0,0,0,.92.54,9.19,9.19,0,0,1,1,.43,2.14,2.14,0,0,1,.57.46.6.6,0,0,1,0,.83,1.92,1.92,0,0,1-.35.35A3.57,3.57,0,0,0,6,16.59c-.22.58-.44,1.16-.65,1.75a.52.52,0,0,1-.51.39.48.48,0,0,1-.45-.62,16.66,16.66,0,0,1,1.1-2.71,3.56,3.56,0,0,1,.87-1Z"/></g></g></svg>