<svg xmlns="http://www.w3.org/2000/svg" viewBox="0 0 26.21 27.77"><defs><style>.cls-1{fill:#fff;fill-rule:evenodd;}</style></defs><title>Asset 10</title><g id="Layer_2" data-name="Layer 2"><g id="Layer_1-2" data-name="Layer 1"><path class="cls-1" d="M1.88,27.77a2.85,2.85,0,0,0,.36-.17L19,18.44l-4-4L1.88,27.77ZM19.72,18,15.58,13.9l4.14-4.18,5.69,3.11c1.4.77.69,1.72,0,2.1L19.72,18ZM19,9.31,2.24.18A1.68,1.68,0,0,0,1.66,0L15,13.33l4-4ZM.68.16,14.44,13.9.74,27.76a1.73,1.73,0,0,1-.62-1.51L0,1.65A1.59,1.59,0,0,1,.68.16Z"/></g></g></svg>