<svg xmlns="http://www.w3.org/2000/svg" viewBox="0 0 163.47 142.99"><defs><style>.cls-1{fill:none;stroke:#fff;stroke-miterlimit:10;stroke-width:2px;opacity:0.05;}</style></defs><title>Asset 4</title><g id="Layer_2" data-name="Layer 2"><g id="Layer_1-2" data-name="Layer 1"><path class="cls-1" d="M161.59,1.71c.25.34.52.66.77,1A8,8,0,0,1,161,8.42q-5.53,9.13-11.06,18.26-8.55,14.07-17.12,28.11-7,11.47-13.91,23Q112.7,87.88,106.52,98l-11,18.14c-3.09,5.09-6.17,10.2-9.27,15.29-1.61,2.65-3.24,5.29-4.95,7.89-1.54,2.35-3.42,3.12-5.46,2.4l-.77-1a26,26,0,0,1-1.11-8.64c.16-5.34.31-10.68.49-16,.27-8.1.54-16.2.87-24.31.24-5.92.12-11.75-1.57-17.25a14.33,14.33,0,0,0-4.66-7c-4-3.28-9-5-14.2-6.41-4.46-1.17-9-2.13-13.49-3.2-6.75-1.6-13.51-3.16-20.23-4.83-6.5-1.62-13.37-2.5-19.08-5.81L1,45.89A3.33,3.33,0,0,1,3.31,42.3a48.68,48.68,0,0,1,5.81-2q18.61-5,37.23-9.93l33.3-8.81,42.23-11.24q16.18-4.3,32.37-8.59C156.79,1.11,159.32.46,161.59,1.71Z"/></g></g></svg>