<svg xmlns="http://www.w3.org/2000/svg" viewBox="0 0 396.07 346.09"><defs><style>.cls-1{fill:none;stroke:#fff;stroke-miterlimit:10;stroke-width:2px;opacity:0.05;}</style></defs><title>Asset 5</title><g id="Layer_2" data-name="Layer 2"><g id="Layer_1-2" data-name="Layer 1"><path class="cls-1" d="M392.92,2.73c.62.82,1.27,1.61,1.89,2.44.92,4.81-.7,9.43-3.44,13.93q-13.5,22.29-27,44.56Q343.52,98,322.6,132.27q-17,28-33.95,56-15,24.75-30.13,49.46Q245.06,259.88,231.61,282c-7.55,12.43-15.05,24.9-22.63,37.32-3.94,6.46-7.91,12.91-12.08,19.27-3.76,5.74-8.34,7.62-13.31,5.85q-.94-1.24-1.89-2.43a63.46,63.46,0,0,1-2.7-21.1c.39-13,.75-26.06,1.19-39.09.67-19.77,1.31-39.55,2.13-59.34.58-14.44.28-28.68-3.84-42.11a35,35,0,0,0-11.37-17.14c-9.82-8-22-12.32-34.65-15.66-10.88-2.86-22-5.2-32.93-7.81-16.47-3.9-33-7.7-49.37-11.78-15.87-4-32.62-6.11-46.57-14.19-.85-1.08-1.69-2.17-2.52-3.25-.42-4,1.6-7.13,5.58-8.76A118.8,118.8,0,0,1,20.82,97q45.42-12.22,90.87-24.24Q152.33,62,193,51.29,244.52,37.6,296,23.85q39.5-10.5,79-21C381.2,1.26,387.4-.31,392.92,2.73Z"/></g></g></svg>