<svg xmlns="http://www.w3.org/2000/svg" viewBox="0 0 53.8 39"><defs><style>.cls-1,.cls-3{stroke:#000;stroke-miterlimit:10;}.cls-1{stroke-width:0.25px;}.cls-2{opacity:0.02;}</style></defs><title>Asset 3</title><g id="Layer_2" data-name="Layer 2"><g id="Layer_1-2" data-name="Layer 1"><path class="cls-1" d="M20.54,19.51a1.92,1.92,0,1,1,1.92-1.92A1.92,1.92,0,0,1,20.54,19.51Zm0-3.55a1.63,1.63,0,1,0,1.63,1.63A1.63,1.63,0,0,0,20.54,16Z"/><path class="cls-1" d="M23.87,22.84a.15.15,0,0,1-.15-.15,3.19,3.19,0,0,0-6.37,0,.14.14,0,1,1-.28,0,3.47,3.47,0,0,1,6.94,0A.15.15,0,0,1,23.87,22.84Z"/><path d="M26.91,10.54c3.28,0,6.57,0,9.85,0A2.52,2.52,0,0,1,39.28,13q0,6.48,0,13a2.53,2.53,0,0,1-2.5,2.49c-6.59,0-13.18,0-19.77,0A2.41,2.41,0,0,1,14.52,26V13a2.42,2.42,0,0,1,2-2.41,3.26,3.26,0,0,1,.54,0Zm0,.79H17A1.52,1.52,0,0,0,15.31,13V26.11a1.47,1.47,0,0,0,1.26,1.54,2.36,2.36,0,0,0,.46,0H37a1.42,1.42,0,0,0,1.45-1.08,2.43,2.43,0,0,0,.07-.66c0-1.61,0-3.23,0-4.84,0-2.73,0-5.45,0-8.17a1.47,1.47,0,0,0-1.23-1.56,2.69,2.69,0,0,0-.49,0Z"/><path d="M33,22.12h3.49c.08,0,.19,0,.24,0s.26.22.27.33-.12.27-.23.36-.18,0-.28,0H29.4c-.27,0-.44-.15-.44-.37s.16-.37.43-.37H33Z"/><path d="M33,16h3.51a.46.46,0,0,1,.29,0c.09.08.21.21.2.32a.5.5,0,0,1-.23.33.51.51,0,0,1-.31,0h-7c-.27,0-.44-.16-.44-.38a.38.38,0,0,1,.43-.37H33Z"/><path d="M33,19.06h3.46a.81.81,0,0,1,.22,0,.35.35,0,0,1,.31.34.35.35,0,0,1-.26.37,1.23,1.23,0,0,1-.27,0H29.39c-.26,0-.43-.16-.43-.38s.17-.37.44-.37H33Z"/><g class="cls-2"><path class="cls-3" d="M13.08,19.51a4.17,4.17,0,1,1,4.17-4.16A4.17,4.17,0,0,1,13.08,19.51Zm0-7.71a3.55,3.55,0,1,0,3.54,3.55A3.55,3.55,0,0,0,13.08,11.8Z"/><path class="cls-3" d="M20.31,26.75a.31.31,0,0,1-.31-.31,6.92,6.92,0,1,0-13.84,0,.31.31,0,0,1-.62,0,7.55,7.55,0,1,1,15.09,0A.33.33,0,0,1,20.31,26.75Z"/></g><path class="cls-2" d="M26.93,0c7.13,0,14.27.05,21.4,0A5.5,5.5,0,0,1,53.8,5.47q-.11,14.06,0,28.12A5.47,5.47,0,0,1,48.38,39c-14.32,0-28.64,0-43,0A5.22,5.22,0,0,1,0,33.56V5.34A5.27,5.27,0,0,1,4.35.09,7.78,7.78,0,0,1,5.53,0Zm0,1.72H5.41C3,1.75,1.72,3,1.72,5.42V33.86a3.22,3.22,0,0,0,2.73,3.35,5.77,5.77,0,0,0,1,0H36.21c4.18,0,8.35,0,12.53,0a3.11,3.11,0,0,0,3.16-2.34,6.2,6.2,0,0,0,.15-1.43c0-3.51,0-7,0-10.54,0-5.91,0-11.82,0-17.74a3.2,3.2,0,0,0-2.67-3.39,5.49,5.49,0,0,0-1.07-.06Z"/><path class="cls-2" d="M40.11,25.2h7.58c.18,0,.41-.05.53,0s.57.47.59.72-.27.57-.5.77-.4.1-.62.1H32.32c-.57,0-.94-.34-.94-.82s.36-.8.94-.8c1.63,0,3.26,0,4.89,0Z"/><path class="cls-2" d="M40.11,11.87h7.63a1.12,1.12,0,0,1,.62.1c.21.18.47.48.45.71a1.2,1.2,0,0,1-.5.72c-.15.12-.44.09-.67.09H32.32c-.58,0-.94-.33-.94-.81s.36-.8.94-.81h7.79Z"/><path class="cls-2" d="M40.17,18.53H47.7a1.93,1.93,0,0,1,.48,0,.77.77,0,0,1,.66.73.74.74,0,0,1-.57.81,1.88,1.88,0,0,1-.58.06H32.32c-.58,0-.94-.34-.94-.82s.36-.8.95-.8h7.84Z"/></g></g></svg>