<svg xmlns="http://www.w3.org/2000/svg" viewBox="0 0 32.66 26.25"><defs><style>.cls-1{fill:#fff;}</style></defs><title>Asset 3</title><g id="Layer_2" data-name="Layer 2"><g id="Layer_1-2" data-name="Layer 1"><path class="cls-1" d="M32.66,8.13l-.27.15-15.79,7.9a.54.54,0,0,1-.55,0L.25,8.28,0,8.13.26,8,16.06.07a.52.52,0,0,1,.53,0L32.38,8Zm-29.89,0L3,8.28l13,6.5a.54.54,0,0,0,.55,0l13-6.51.27-.16L29.56,8l-13-6.5a.52.52,0,0,0-.53,0L4.57,7.22Z"/><path class="cls-1" d="M31,17.56c.17.35.34.66.49,1,0,0-.08.17-.15.21L28.95,20l-12.4,6.2a.43.43,0,0,1-.43,0L1.38,18.82c-.31-.15-.31-.16-.15-.47l.4-.79,1.18.58,13.25,6.63a.54.54,0,0,0,.55,0l14.14-7.07Z"/><path class="cls-1" d="M31,12.57c.17.34.34.66.49,1,0,0-.09.19-.16.22l-3.62,1.82L16.67,21.14a.69.69,0,0,1-.69,0L1.4,13.84c-.33-.16-.33-.16-.16-.49l.4-.78,1.27.63,13.19,6.6a.46.46,0,0,0,.46,0l14.09-7.05Z"/></g></g></svg>