<svg xmlns="http://www.w3.org/2000/svg" viewBox="0 0 31.97 25.72"><defs><style>.cls-1{fill:#fa615b;}</style></defs><title>My information</title><g id="Layer_2" data-name="Layer 2"><g id="Layer_1-2" data-name="Layer 1"><path class="cls-1" d="M31.73,7.83,28.13,6,16.23.07a.48.48,0,0,0-.49,0L4.26,5.81l-4,2-.16.09L0,8,.06,8l.15.08,4.16,2.08,11.36,5.68a.49.49,0,0,0,.52,0L28.14,9.89l3.61-1.81L31.89,8,32,8l-.08,0Zm-2.63.25L29,8.13,25.71,9.78l-9.45,4.74a.77.77,0,0,1-.28.07.63.63,0,0,1-.28-.08L5.06,9.19,2.93,8.13l-.07,0L2.62,8,7.51,5.5l8.2-4.1a.52.52,0,0,1,.54,0L27.31,6.93l2,1Z"/><path class="cls-1" d="M30.51,17.47l-.11-.22-.08,0-.17.08-2.42,1.21L16.27,24.31a.56.56,0,0,1-.56,0L3.6,18.26l-.9-.45L2,17.46l-.44-.21L1.18,18c-.07.15-.11.23-.09.28s.08.08.23.15L4.9,20.22l10.89,5.46a.42.42,0,0,0,.41,0l10.89-5.45,1.84-.92,1.8-.91a.35.35,0,0,0,.14-.17c-.11-.25-.23-.49-.36-.74Z"/><path class="cls-1" d="M1.34,13.54l3.92,2,10.39,5.2a.65.65,0,0,0,.66,0l8.74-4.38L27.8,15l2.91-1.47c.07,0,.16-.15.15-.19-.1-.24-.22-.47-.34-.71l-.12-.24-.12.06-.23.1-.57.29L16.22,19.44a.51.51,0,0,1-.48,0L4,13.58,2.8,13,2,12.57l-.45-.22-.38.74c-.08.16-.12.24-.1.28S1.18,13.46,1.34,13.54Z"/></g></g></svg>