<svg xmlns="http://www.w3.org/2000/svg" viewBox="0 0 37.97 33.94"><defs><style>.cls-1{fill:none;stroke:#fff;stroke-miterlimit:10;opacity:0.05;}</style></defs><title>Asset 14</title><g id="Layer_2" data-name="Layer 2"><g id="Layer_1-2" data-name="Layer 1"><path class="cls-1" d="M37.22.72l.2.26a1.85,1.85,0,0,1-.22,1.36L35,6.6l-3.48,6.55L28.66,18.5l-2.51,4.72-2.24,4.23L22,31c-.33.62-.66,1.23-1,1.84a.91.91,0,0,1-1.23.5l-.2-.25A7,7,0,0,1,19.17,31c-.06-1.29-.13-2.59-.19-3.88-.09-2-.18-3.92-.25-5.89A13.64,13.64,0,0,0,18,17a4.23,4.23,0,0,0-1.22-1.78,10,10,0,0,0-3.44-1.78c-1.06-.35-2.14-.66-3.21-1C8.56,12,7,11.47,5.35,11A18.7,18.7,0,0,1,.78,9.24L.52,8.9A.69.69,0,0,1,1,8.07a9.75,9.75,0,0,1,1.32-.38l8.52-1.82,7.62-1.61L28.1,2.19,35.51.62A2.21,2.21,0,0,1,37.22.72Z"/></g></g></svg>