<svg xmlns="http://www.w3.org/2000/svg" viewBox="0 0 552.61 482.52"><defs><style>.cls-1{fill:#fff;opacity:0.05;}</style></defs><title>Asset 13</title><g id="Layer_2" data-name="Layer 2"><g id="Layer_1-2" data-name="Layer 1"><path class="cls-1" d="M549.59,2.42c.87,1.15,1.78,2.26,2.65,3.42,1.29,6.75-1,13.22-4.82,19.53Q528.5,56.63,509.59,87.87,480.32,136,451,184.08q-23.84,39.24-47.6,78.54-21.09,34.7-42.25,69.36-18.88,31-37.74,62.09C312.81,411.5,302.29,429,291.66,446.4c-5.52,9.06-11.09,18.11-16.93,27-5.27,8.05-11.7,10.69-18.67,8.2q-1.32-1.74-2.65-3.41a89,89,0,0,1-3.79-29.59c.54-18.29,1.05-36.55,1.67-54.82.93-27.72,1.84-55.46,3-83.21.81-20.25.39-40.21-5.39-59.05a49,49,0,0,0-15.94-24c-13.77-11.23-30.83-17.28-48.59-22-15.26-4-30.8-7.29-46.18-10.95-23.09-5.47-46.24-10.8-69.23-16.51-22.26-5.54-45.74-8.57-65.31-19.9-1.19-1.51-2.37-3-3.54-4.55-.59-5.63,2.24-10,7.83-12.29a166.59,166.59,0,0,1,19.89-6.68q63.7-17.13,127.43-34,57-15.12,114-30.14Q341.49,51.33,413.74,32q55.39-14.73,110.79-29.4C533.16.37,541.85-1.84,549.59,2.42Z"/></g></g></svg>