<svg xmlns="http://www.w3.org/2000/svg" viewBox="0 0 269.18 235.3"><defs><style>.cls-1{fill:none;stroke:#fff;stroke-miterlimit:10;stroke-width:2px;opacity:0.05;}</style></defs><title>Asset 3</title><g id="Layer_2" data-name="Layer 2"><g id="Layer_1-2" data-name="Layer 1"><path class="cls-1" d="M266.73,2.17c.42.56.86,1.09,1.28,1.66.62,3.26-.48,6.39-2.33,9.44q-9.15,15.11-18.29,30.21Q233.23,66.76,219,90q-11.53,19-23,38-10.2,16.78-20.43,33.54-9.13,15-18.25,30c-5.12,8.43-10.2,16.88-15.34,25.3-2.67,4.38-5.36,8.76-8.19,13.06-2.55,3.89-5.66,5.17-9,4q-.64-.84-1.28-1.65a43,43,0,0,1-1.83-14.3c.26-8.84.51-17.67.81-26.51.45-13.4.89-26.81,1.44-40.23.39-9.79.19-19.44-2.61-28.55A23.7,23.7,0,0,0,113.62,111c-6.66-5.43-14.91-8.35-23.49-10.61-7.38-1.94-14.89-3.53-22.33-5.29-11.17-2.65-22.36-5.22-33.47-8C23.56,84.43,12.21,83,2.75,77.48L1,75.28a5.52,5.52,0,0,1,3.78-5.94,80.55,80.55,0,0,1,9.62-3.23Q45.24,57.83,76,49.67q27.55-7.31,55.11-14.57,35-9.28,69.88-18.61,26.78-7.12,53.57-14.21C258.78,1.18,263,.11,266.73,2.17Z"/></g></g></svg>