<svg xmlns="http://www.w3.org/2000/svg" viewBox="0 0 34.53 31.14"><defs><style>.cls-1{fill:#fff;}</style></defs><title>Asset 6</title><g id="Layer_2" data-name="Layer 2"><g id="Layer_1-2" data-name="Layer 1"><path class="cls-1" d="M34.28.2l.19.24a1.73,1.73,0,0,1-.19,1.28l-2,4-3.15,6.2L26.55,17l-2.27,4.47-2,4-1.7,3.37c-.3.58-.6,1.17-.91,1.74a.85.85,0,0,1-1.14.48l-.19-.24a6.54,6.54,0,0,1-.43-2c-.08-1.21-.16-2.42-.24-3.63-.12-1.84-.23-3.68-.33-5.51a12.79,12.79,0,0,0-.72-3.94,4,4,0,0,0-1.17-1.65,9.36,9.36,0,0,0-3.25-1.61c-1-.31-2-.58-3-.87-1.51-.44-3-.86-4.54-1.32A17.53,17.53,0,0,1,.27,8.79L0,8.48a.65.65,0,0,1,.42-.79,9.14,9.14,0,0,1,1.23-.38l8-1.85,7.11-1.64,9-2.09L32.67.13A2.07,2.07,0,0,1,34.28.2Z"/></g></g></svg>