<svg xmlns="http://www.w3.org/2000/svg" viewBox="0 0 10.15 1.47"><defs><style>.cls-1{fill:#fa615b;}</style></defs><title>minus</title><g id="Layer_2" data-name="Layer 2"><g id="Layer_1-2" data-name="Layer 1"><path class="cls-1" d="M.7,1A.21.21,0,0,1,.5.76.23.23,0,0,1,.69.51H6L6.45,1H.7Z"/><path class="cls-1" d="M.8,0A.92.92,0,0,0,.57,0,.72.72,0,0,0,0,.8a.71.71,0,0,0,.7.67h7l-1-1h1V0H.8Z"/><path class="cls-1" d="M6.31,1V.64H5.81V.5h3.6a.24.24,0,0,1,.24.24A.23.23,0,0,1,9.4,1H6.31Z"/><path class="cls-1" d="M9.33,0h-4V.21h-.5V1h0a.89.89,0,0,0,0,.15h1a.38.38,0,0,1-.32.32H9.41a.73.73,0,0,0,.75-.71A.74.74,0,0,0,9.45,0Z"/></g></g></svg>