<svg xmlns="http://www.w3.org/2000/svg" viewBox="0 0 26.94 26.91"><defs><style>.cls-1{fill:#fa615b;stroke:#fa615b;stroke-miterlimit:10;}</style></defs><title>Asset 8</title><g id="Layer_2" data-name="Layer 2"><g id="Layer_1-2" data-name="Layer 1"><path class="cls-1" d="M.5,13.44A12.31,12.31,0,0,1,3.19,5.49,12.73,12.73,0,0,1,10,.93,9.82,9.82,0,0,1,13,.51c.4,0,.8,0,1.2,0a10.61,10.61,0,0,1,3,.51.26.26,0,0,1,.19.32.26.26,0,0,1-.34.16,12.43,12.43,0,0,0-4-.53A12.23,12.23,0,0,0,8.36,2.05,12.41,12.41,0,0,0,2.51,7.47a12.48,12.48,0,0,0-1.12,9.14A12.4,12.4,0,0,0,7,24.12a12,12,0,0,0,4,1.57A12.45,12.45,0,0,0,21.55,23a12.46,12.46,0,0,0,4.38-10.21,12.28,12.28,0,0,0-2.58-6.93c-.08-.11-.15-.24,0-.35a.38.38,0,0,1,.28-.09c.07,0,.14.09.19.15A13.05,13.05,0,0,1,25.41,8.3a11.56,11.56,0,0,1,1,3.9,14.31,14.31,0,0,1-.16,3.66,12.89,12.89,0,0,1-4.46,7.57,12.58,12.58,0,0,1-5.39,2.68,10.4,10.4,0,0,1-2.64.3,17.82,17.82,0,0,1-2.12-.09,13,13,0,0,1-10.06-7.6,11.84,11.84,0,0,1-1-3.64C.52,14.54.53,14,.5,13.44Z"/><path class="cls-1" d="M14,13.56H8.76a.23.23,0,0,1-.24-.23.24.24,0,0,1,.21-.27.75.75,0,0,1,.18,0h5"/><path class="cls-1" d="M13.72,12.75c0,.1,0,.2,0,.32h4.44a.26.26,0,0,1,.26.26.25.25,0,0,1-.27.24H13.92c-.16,0-.2,0-.2.2"/></g></g></svg>