<svg xmlns="http://www.w3.org/2000/svg" viewBox="0 0 23.12 23.11"><defs><style>.cls-1{fill:#9fa4b6;}.cls-2{fill:#e13838;}.cls-3{fill:#fefefe;}</style></defs><title>Asset 9</title><g id="Layer_2" data-name="Layer 2"><g id="Layer_1-2" data-name="Layer 1"><path class="cls-1" d="M16.92,9.07H16.1V6.41H10.53V.84l-.26,0H1.37C.91.83.83.91.83,1.38q0,10.2,0,20.41c0,.4.1.5.5.5H15.59c.4,0,.5-.1.5-.5s0-.58,0-.87a.26.26,0,0,1,0-.06h.79a10,10,0,0,1,0,1.16,1.29,1.29,0,0,1-1.28,1.09H1.33A1.29,1.29,0,0,1,0,21.78Q0,11.55,0,1.32A1.3,1.3,0,0,1,1.34,0h9.82a1.31,1.31,0,0,1,1,.39l4.43,4.43a1.17,1.17,0,0,1,.37.82C16.93,6.77,16.92,7.91,16.92,9.07ZM11.36.9V5.55H16Z"/><path class="cls-2" d="M15,10.52c2.32,0,4.64,0,7,0a1.2,1.2,0,0,1,1.19,1.18c0,2.18,0,4.35,0,6.53A1.09,1.09,0,0,1,22,19.39H8a1.09,1.09,0,0,1-1.14-1.14q0-3.29,0-6.58A1.08,1.08,0,0,1,8,10.52Z"/><path class="cls-3" d="M13.54,17.1V12.83l.14,0h1.67A1.61,1.61,0,0,1,17,14.06a3.05,3.05,0,0,1,0,1.85,1.57,1.57,0,0,1-1.48,1.19C14.84,17.13,14.2,17.1,13.54,17.1Zm.58-.52c.44,0,.86,0,1.29,0a1,1,0,0,0,1-.73,2.73,2.73,0,0,0,0-1.73,1,1,0,0,0-.65-.73,5.37,5.37,0,0,0-1.62-.09Z"/><path class="cls-3" d="M9.65,17V12.8h1a9.71,9.71,0,0,1,1.2,0,1.1,1.1,0,0,1,1,1.19,1.15,1.15,0,0,1-1,1.21c-.47.05-1,0-1.43.05l-.19,0V17Zm.56-2.23h1.46a.63.63,0,0,0,.24-.08.69.69,0,0,0,.36-.76.61.61,0,0,0-.48-.59c-.52,0-1,0-1.58,0Z"/><path class="cls-3" d="M17.87,12.81h2.81v.47H18.43V14.6h1.94v.5h-2V17h-.54Z"/></g></g></svg>