<svg xmlns="http://www.w3.org/2000/svg" viewBox="0 0 49.31 51.55"><defs><style>.cls-1{opacity:0.02;}</style></defs><title>Asset 4</title><g id="Layer_2" data-name="Layer 2"><g id="Layer_1-2" data-name="Layer 1"><path d="M13,27.06c0-2.81,0-5.63,0-8.44a.92.92,0,0,1,.24-.59c1.38-1.4,2.78-2.79,4.17-4.19a.81.81,0,0,1,.62-.25H28.86a2.52,2.52,0,0,1,2.65,2.67v5.88a1.47,1.47,0,0,1,0,.21.5.5,0,0,1-.48.49.49.49,0,0,1-.47-.5c0-.66,0-1.32,0-2V16.12A1.41,1.41,0,0,0,29,14.55H18.36a.66.66,0,0,0-.51.21l-3.68,3.68a.65.65,0,0,0-.22.5q0,8.26,0,16.53A1.39,1.39,0,0,0,15.49,37H29.05a1.4,1.4,0,0,0,1.51-1.49V33.68c0-.36.2-.58.49-.57s.47.22.46.57a18.51,18.51,0,0,1-.06,2.24,2.44,2.44,0,0,1-2.39,2H15.43A2.51,2.51,0,0,1,13,35.48Z"/><path d="M25.53,29.9a2.2,2.2,0,0,1,.24-.4q3.32-3.34,6.64-6.68a.74.74,0,0,1,.57-.17,10.25,10.25,0,0,1,1.34.38,2,2,0,0,1,.57.32,3.88,3.88,0,0,1,1.35,2.17,1.2,1.2,0,0,1-.35,1.36c-2.1,2.05-4.16,4.14-6.23,6.22-.08.07-.14.15-.22.21a.5.5,0,0,1-.64,0,.48.48,0,0,1,0-.64,2.18,2.18,0,0,1,.21-.22c2-2,4-4,6-6a.77.77,0,0,0,.24-.94,3.93,3.93,0,0,0-.6-1.1A2.82,2.82,0,0,0,33,23.66c-.09,0-.23.1-.32.18l-4.51,4.54-1.78,1.8a.43.43,0,0,1-.55.12A1.73,1.73,0,0,1,25.53,29.9Z"/><path d="M22.23,25.77H17.05c-.15,0-.35,0-.42-.1a.73.73,0,0,1-.17-.5c0-.24.23-.35.47-.35H27.38c.47,0,.71.15.72.47s-.24.49-.73.49Z"/><path d="M21.28,28.69H17c-.35,0-.55-.14-.6-.4s.19-.55.57-.55h8.56c.36,0,.59.17.6.46s-.22.49-.57.49h-4.3Z"/><path d="M34.4,25.1a2,2,0,0,1-.26.43c-2,2-4.12,4.1-6.18,6.14a.46.46,0,0,1-.72,0c-.21-.21-.19-.47.06-.72l6.16-6.12a.49.49,0,0,1,.57-.16C34.18,24.79,34.27,25,34.4,25.1Z"/><path d="M24.39,35.46a.84.84,0,0,1-.82-1c.31-1.2.63-2.39.95-3.58a.47.47,0,0,1,.61-.36.46.46,0,0,1,.3.6c-.18.71-.36,1.42-.56,2.12a.48.48,0,0,0,.12.48.89.89,0,0,0,1.15.32c.56-.19,1.14-.31,1.71-.45a.47.47,0,0,1,.61.3.46.46,0,0,1-.35.61c-1.21.32-2.42.62-3.63.92Z"/><path d="M20,31.62H17c-.36,0-.6-.23-.57-.52s.23-.43.57-.43h6.12c.37,0,.59.17.6.46s-.22.49-.6.49Z"/><path d="M15.74,18.5a9.47,9.47,0,0,0,1.06-.09,1.35,1.35,0,0,0,1.08-1.34c0-.47,0-.95,0-1.43s.19-.58.48-.58.48.22.47.59a14.22,14.22,0,0,1,0,1.73,2.54,2.54,0,0,1-2.34,2c-.48,0-1,0-1.44,0a.48.48,0,1,1,0-1h.73Z"/><g class="cls-1"><path d="M0,28.5c0-6,0-11.91,0-17.86A2,2,0,0,1,.53,9.4c2.92-3,5.88-5.91,8.82-8.87A1.73,1.73,0,0,1,10.67,0H33.56a5.32,5.32,0,0,1,5.6,5.63V18.08c0,.15,0,.3,0,.45a1,1,0,0,1-1,1,1,1,0,0,1-1-1.06c0-1.4,0-2.79,0-4.19v-9A3,3,0,0,0,33.84,2H11.34a1.38,1.38,0,0,0-1.07.44q-3.88,3.92-7.8,7.8A1.37,1.37,0,0,0,2,11.32q0,17.47,0,35a3,3,0,0,0,3.23,3.26H34a3,3,0,0,0,3.19-3.17c0-1.29,0-2.58,0-3.87,0-.75.43-1.23,1-1.21a1,1,0,0,1,1,1.2A39.66,39.66,0,0,1,39,47.24,5.15,5.15,0,0,1,34,51.54q-14.4,0-28.82,0A5.32,5.32,0,0,1,0,46.29Z"/><path d="M26.51,34.51a4.23,4.23,0,0,1,.51-.86q7-7.08,14-14.13a1.58,1.58,0,0,1,1.2-.35,20.47,20.47,0,0,1,2.85.8,4.42,4.42,0,0,1,1.19.68,8.05,8.05,0,0,1,2.85,4.59,2.52,2.52,0,0,1-.72,2.87c-4.45,4.34-8.81,8.76-13.2,13.15a4.89,4.89,0,0,1-.46.45,1,1,0,0,1-1.35-.07,1,1,0,0,1,0-1.34,4.89,4.89,0,0,1,.44-.47c4.23-4.22,8.44-8.46,12.69-12.65a1.6,1.6,0,0,0,.51-2,7.56,7.56,0,0,0-1.28-2.32c-.92-1.07-2.15-1.25-3.36-1.56-.18,0-.48.2-.66.38q-4.78,4.78-9.55,9.6L28.4,35.08a.9.9,0,0,1-1.16.26A3.74,3.74,0,0,1,26.51,34.51Z"/><path d="M19.52,25.76h-11c-.31,0-.73,0-.89-.23a1.52,1.52,0,0,1-.36-1.06c.05-.49.49-.72,1-.72h22.1c1,0,1.51.32,1.53,1s-.5,1-1.53,1Z"/><path d="M17.52,32h-9c-.73,0-1.16-.31-1.26-.85s.4-1.17,1.19-1.17H26.54c.77,0,1.25.37,1.27,1s-.46,1-1.2,1H17.52Z"/><path d="M45.27,24.35a4.62,4.62,0,0,1-.54.9q-6.54,6.51-13.09,13a1,1,0,0,1-1.53.09,1,1,0,0,1,.14-1.53l13-12.95a1,1,0,0,1,1.21-.32C44.79,23.68,45,24,45.27,24.35Z"/><path d="M24.08,46.27a1.78,1.78,0,0,1-1.73-2.06q1-3.8,2-7.58a1,1,0,1,1,1.91.52c-.38,1.5-.76,3-1.19,4.48a1,1,0,0,0,.26,1,1.89,1.89,0,0,0,2.44.66c1.18-.39,2.4-.64,3.61-.94A1,1,0,0,1,32.7,43,1,1,0,0,1,32,44.3c-2.56.66-5.11,1.3-7.67,1.94Z"/><path d="M14.87,38.14H8.43c-.76,0-1.27-.48-1.2-1.11s.5-.91,1.2-.91h13c.78,0,1.25.37,1.27,1s-.47,1-1.27,1Z"/><path d="M5.8,10.38A18.29,18.29,0,0,0,8,10.19a2.85,2.85,0,0,0,2.28-2.83c0-1,0-2,0-3,0-.76.41-1.24,1-1.23s1,.47,1,1.24A27.75,27.75,0,0,1,12.22,8a5.37,5.37,0,0,1-5,4.33c-1,0-2,0-3,0a1,1,0,0,1-1.14-1c0-.59.45-1,1.15-1H5.79Z"/></g></g></g></svg>