<svg xmlns="http://www.w3.org/2000/svg" viewBox="0 0 250 229.34"><defs><style>.cls-1{fill:#195a79;}.cls-2{font-size:37.85px;font-family:OpenSans-Semibold, Open Sans;font-weight:700;}.cls-2,.cls-3{fill:#fff;}.cls-3{font-size:16px;font-family:OpenSans-Light, Open Sans;}</style></defs><title>Asset 2</title><g id="Layer_2" data-name="Layer 2"><g id="Layer_1-2" data-name="Layer 1"><path class="cls-1" d="M248.1,1.29c.47.56,1,1.11,1.43,1.68,1,3.27.31,6.36-1.12,9.36-4.69,9.9-9.35,19.8-14.06,29.68Q223.46,64.87,212.54,87.7q-8.86,18.64-17.69,37.31-7.84,16.47-15.73,32.93l-14,29.49c-3.93,8.28-7.83,16.59-11.79,24.86-2.06,4.3-4.14,8.6-6.35,12.82-2,3.82-4.85,5-8.25,3.74-.47-.57-.95-1.13-1.43-1.68a47.77,47.77,0,0,1-3.49-14.31c-.8-8.81-1.62-17.6-2.39-26.41-1.16-13.35-2.35-26.71-3.42-40.07-.79-9.76-2.14-19.38-5.93-28.53a28.88,28.88,0,0,0-8.83-11.78c-7.08-5.57-15.4-8.69-24-11.15C81.87,92.81,74.42,91,67,89.1c-11.11-2.91-22.23-5.75-33.29-8.78C23,77.39,11.87,75.66,2.08,70L.16,67.73a4.73,4.73,0,0,1,2.95-5.84,66.41,66.41,0,0,1,8.9-3Q40.78,51.4,69.57,44q25.74-6.62,51.5-13.19Q153.73,22.42,186.35,14q25-6.45,50.05-12.87C240.3.11,244.23-.86,248.1,1.29Z"/><text class="cls-2" transform="matrix(1, 0, 0, 1, 109.97, 87.03)">100</text><text class="cls-3" transform="matrix(1, 0, 0, 1, 176.94, 75.08)">%</text></g></g></svg>