<svg xmlns="http://www.w3.org/2000/svg" viewBox="0 0 250 229.34"><defs><style>.cls-1{font-size:37.85px;font-family:OpenSans-Semibold, OpenSans Semibold;font-weight:700;}.cls-1,.cls-2,.cls-3{fill:#195a79;}.cls-2{font-size:15.14px;font-family:OpenSans-Light, OpenSans Light;}</style></defs><title>Asset 10</title><g id="Layer_2" data-name="Layer 2"><g id="Layer_1-2" data-name="Layer 1"><text class="cls-1" transform="matrix(1, 0, 0, 1, 132.97, 87.03)">20</text><text class="cls-2" transform="matrix(1, 0, 0, 1, 176.94, 72.08)">%</text><path class="cls-3" d="M225.26,21.51q-3.12,6.6-6.26,13.19-5.45,11.44-10.92,22.87T197.19,80.4q-4.66,9.8-9.3,19.61-4.19,8.85-8.39,17.69-5,10.43-9.95,20.84l-5.78,12.1-2.92,6.13q-5.56,11.68-11.12,23.36l-1.55,3.27-.29-3.35c-1-11.49-2-23.36-3-35-.82-10.06-2.31-21.92-7.18-33.69a45.75,45.75,0,0,0-14-18.59c-9.89-7.78-21.11-11.64-29.79-14.14-5.1-1.46-10.2-2.76-15.12-4-2.48-.63-5-1.26-7.46-1.92l-9.06-2.36C57.94,69.16,53.52,68,49.1,66.85l24.7-6.36L99.17,54l26.13-6.69q23.52-6.05,47-12.14l18.26-4.72,4-1,30.64-7.89M242.95,0a26.81,26.81,0,0,0-6.54,1.1q-25,6.4-50.05,12.87-32.64,8.43-65.29,16.85Q95.33,37.44,69.57,44,40.79,51.43,12,58.91a66.57,66.57,0,0,0-8.9,3A4.72,4.72,0,0,0,.16,67.73L2.08,70C11.87,75.66,23,77.39,33.74,80.32c11.07,3,22.19,5.87,33.29,8.77,7.4,1.94,14.84,3.71,22.2,5.82,8.57,2.46,16.89,5.58,24,11.15A28.87,28.87,0,0,1,122,117.85c3.79,9.15,5.14,18.78,5.93,28.53,1.07,13.37,2.25,26.72,3.42,40.08.77,8.8,1.59,17.6,2.39,26.41a47.64,47.64,0,0,0,3.48,14.31q.72.82,1.44,1.68a7.11,7.11,0,0,0,2.5.49c2.3,0,4.26-1.39,5.74-4.23,2.21-4.23,4.29-8.52,6.35-12.83,4-8.27,7.86-16.58,11.8-24.86q7-14.75,14-29.49Q187,141.48,194.85,125q8.87-18.65,17.69-37.3Q223.42,64.85,234.35,42q7.06-14.83,14.06-29.68c1.43-3,2.11-6.09,1.12-9.36-.48-.57-1-1.12-1.44-1.68A10.33,10.33,0,0,0,242.95,0Z"/></g></g></svg>