<svg xmlns="http://www.w3.org/2000/svg" viewBox="0 0 250 229.34"><defs><style>.cls-1{fill:#195a79;}.cls-2{fill:#fff;}</style></defs><title>Asset 13</title><g id="Layer_2" data-name="Layer 2"><g id="Layer_1-2" data-name="Layer 1"><path class="cls-1" d="M248.1,1.29c.47.56,1,1.11,1.44,1.68,1,3.27.3,6.36-1.12,9.36q-7,14.84-14.06,29.68Q223.46,64.87,212.54,87.7q-8.87,18.64-17.69,37.3-7.84,16.48-15.73,32.94-7,14.75-14,29.49c-3.94,8.28-7.84,16.59-11.8,24.86-2.06,4.3-4.13,8.6-6.35,12.83-2,3.82-4.85,5-8.25,3.73q-.71-.85-1.44-1.68a47.64,47.64,0,0,1-3.48-14.31c-.8-8.81-1.62-17.61-2.39-26.41-1.17-13.35-2.35-26.71-3.42-40.08-.79-9.75-2.14-19.38-5.93-28.53a28.87,28.87,0,0,0-8.84-11.77c-7.08-5.57-15.4-8.69-24-11.15C81.87,92.81,74.42,91,67,89.1c-11.1-2.91-22.22-5.75-33.29-8.77C23,77.39,11.87,75.66,2.08,70L.16,67.73a4.72,4.72,0,0,1,2.95-5.83,66.57,66.57,0,0,1,8.9-3Q40.78,51.4,69.57,44q25.75-6.62,51.5-13.19,32.66-8.4,65.29-16.85,25-6.45,50.05-12.87C240.3.11,244.23-.86,248.1,1.29Z"/><path class="cls-2" d="M172.51,51.73a5,5,0,0,0-3.12,8.83.43.43,0,0,1,.14.6q-2.42,6-4.81,12.07c0,.11-.1.22-.16.34a5.28,5.28,0,0,0-1.47-.22,5.1,5.1,0,0,0-1.61.27h-.06a.59.59,0,0,1-.35-.15l-4.22-4a.62.62,0,0,1-.21-.59A5,5,0,0,0,152,63.33h-.23a5,5,0,0,0-4.58,2.95,4.93,4.93,0,0,0,1,5.51.42.42,0,0,1,.09.58c-.87,1.69-1.71,3.38-2.57,5.07-.06.11-.12.21-.16.28-.54-.1-1-.24-1.52-.28l-.43,0a5,5,0,0,0,0,10h.25a5,5,0,0,0,3.52-8.3.42.42,0,0,1-.08-.56q1.32-2.58,2.62-5.17c.1-.19.19-.26.33-.26a.9.9,0,0,1,.22,0,5.48,5.48,0,0,0,1.38.18,4.78,4.78,0,0,0,3-1.06c.4-.31.76-.66,1.17-1l3.72,3.54-.27.3a4.86,4.86,0,0,0-1.2,4,5,5,0,0,0,4.18,4.18,4.82,4.82,0,0,0,.75.06,5,5,0,0,0,4.48-2.83,4.94,4.94,0,0,0-1.09-5.77.43.43,0,0,1-.13-.58q1.75-4.34,3.47-8.69l1.54-3.87.77.09.4,0a5,5,0,0,0,.54-9.91,5.15,5.15,0,0,0-.58,0Zm0,8.08h0a3.11,3.11,0,0,1,0-6.22h0a3.11,3.11,0,0,1,0,6.22ZM151.7,71.41a3.1,3.1,0,1,1,0-6.2h0a3.1,3.1,0,0,1,0,6.2Zm11.41,10h0a3.11,3.11,0,0,1,0-6.22h0a3.11,3.11,0,0,1,0,6.22Zm-19.48,4a3.11,3.11,0,0,1,0-6.22h0a3.11,3.11,0,0,1,0,6.22Z"/></g></g></svg>