<svg xmlns="http://www.w3.org/2000/svg" viewBox="0 0 250 229.34"><defs><style>.cls-1{fill:#195a79;}.cls-2{fill:none;stroke:#195a79;stroke-miterlimit:10;stroke-width:2px;}</style></defs><title>Asset 12</title><g id="Layer_2" data-name="Layer 2"><g id="Layer_1-2" data-name="Layer 1"><path class="cls-1" d="M225.26,21.51q-3.12,6.6-6.26,13.19-5.45,11.43-10.91,22.85T197.19,80.4q-4.66,9.8-9.3,19.61-4.19,8.85-8.39,17.69-5,10.43-9.95,20.84l-5.78,12.1-2.92,6.13q-5.56,11.68-11.12,23.36l-1.55,3.27-.29-3.35c-1-11.49-2-23.36-3-35-.82-10.06-2.31-21.92-7.18-33.69a45.75,45.75,0,0,0-14-18.59c-9.89-7.78-21.11-11.64-29.79-14.14-5.1-1.46-10.2-2.76-15.12-4-2.48-.63-5-1.26-7.46-1.92l-9.06-2.36C57.94,69.16,53.52,68,49.1,66.85l24.7-6.36L99.17,54l26.13-6.69q23.52-6.05,47-12.13l18.27-4.72,4-1,30.66-7.89M242.95,0a26.81,26.81,0,0,0-6.54,1.1q-25,6.4-50.05,12.87-32.64,8.43-65.29,16.85Q95.33,37.44,69.57,44,40.79,51.43,12,58.91a66.56,66.56,0,0,0-8.9,3A4.72,4.72,0,0,0,.16,67.73L2.08,70C11.87,75.66,23,77.39,33.74,80.32c11.07,3,22.19,5.87,33.29,8.77,7.4,1.94,14.84,3.71,22.2,5.82,8.57,2.46,16.89,5.58,24,11.15A28.87,28.87,0,0,1,122,117.85c3.79,9.15,5.14,18.78,5.93,28.53,1.07,13.37,2.25,26.72,3.42,40.08.77,8.8,1.59,17.6,2.39,26.41a47.64,47.64,0,0,0,3.48,14.31q.72.82,1.44,1.68a7.11,7.11,0,0,0,2.5.49c2.3,0,4.26-1.39,5.74-4.23,2.21-4.23,4.29-8.52,6.35-12.83,4-8.27,7.86-16.58,11.8-24.86q7-14.75,14-29.49Q187,141.48,194.85,125q8.87-18.65,17.69-37.3Q223.42,64.85,234.35,42q7.06-14.83,14.06-29.68c1.43-3,2.11-6.09,1.12-9.36-.48-.57-1-1.12-1.44-1.68A10.33,10.33,0,0,0,242.95,0Z"/><path class="cls-2" d="M171.38,61.57l-1.54,3.87q-1.73,4.35-3.47,8.69a.43.43,0,0,0,.13.58,4.94,4.94,0,0,1,1.09,5.77,5,5,0,0,1-9.41-1.41,4.86,4.86,0,0,1,1.2-4l.27-.3-3.72-3.54c-.4.36-.77.71-1.16,1a4.82,4.82,0,0,1-4.37.88c-.28-.07-.41,0-.55.23q-1.29,2.6-2.62,5.17a.42.42,0,0,0,.08.56,5,5,0,0,1-3.52,8.3,5,5,0,1,1,.22-9.92c.5,0,1,.18,1.52.28,0-.06.1-.17.16-.28.86-1.69,1.7-3.39,2.57-5.07a.42.42,0,0,0-.09-.58,4.93,4.93,0,0,1-1-5.51,5,5,0,0,1,9.47,2.63.62.62,0,0,0,.21.59l4.22,4a.52.52,0,0,0,.41.14,5.08,5.08,0,0,1,3.08,0c.06-.12.11-.23.16-.34q2.41-6,4.81-12.07a.43.43,0,0,0-.14-.6,5,5,0,0,1,3.7-8.79,5,5,0,0,1-.94,9.89ZM166.2,78.35a3.11,3.11,0,1,0-6.21,0,3.11,3.11,0,0,0,6.21,0Zm-25.68,4a3.1,3.1,0,1,0,3.11-3.11A3.1,3.1,0,0,0,140.52,82.37Zm35.09-25.67a3.1,3.1,0,1,0-3.11,3.11A3.1,3.1,0,0,0,175.62,56.71ZM154.81,68.32a3.11,3.11,0,1,0-3.09,3.09A3.1,3.1,0,0,0,154.81,68.32Z"/></g></g></svg>