<svg xmlns="http://www.w3.org/2000/svg" viewBox="0 0 250 229.34"><defs><style>.cls-1{font-size:37.85px;font-family:OpenSans-Semibold, OpenSans Semibold;font-weight:700;}.cls-1,.cls-2,.cls-3{fill:#195a79;}.cls-2{font-size:15.14px;font-family:OpenSans-Light, OpenSans Light;}</style></defs><title>Asset 11</title><g id="Layer_2" data-name="Layer 2"><g id="Layer_1-2" data-name="Layer 1"><text class="cls-1" transform="matrix(1, 0, 0, 1, 132.97, 87.03)">70</text><text class="cls-2" transform="matrix(1, 0, 0, 1, 176.94, 72.08)">%</text><path class="cls-3" d="M208.88,35,200,53.68q-5.46,11.42-10.91,22.86-4.66,9.8-9.3,19.61-4.19,8.85-8.39,17.69-5,10.42-9.94,20.84l-5.78,12.1-1.34,2.81q-.22-2.66-.43-5.3c-.87-10.76-2.49-23.49-7.83-36.38v0a54.65,54.65,0,0,0-16.75-22.2c-11.12-8.75-23.41-13-32.88-15.72-3.83-1.1-7.62-2.09-11.33-3L101.4,62.7,127.55,56q23.49-6,47-12.12l18.33-4.74,3.83-1L208.88,35M242.95,0a26.81,26.81,0,0,0-6.54,1.1q-25,6.4-50.05,12.87-32.64,8.43-65.29,16.85Q95.33,37.44,69.57,44,40.79,51.43,12,58.91a66.57,66.57,0,0,0-8.9,3A4.72,4.72,0,0,0,.16,67.73L2.08,70C11.87,75.66,23,77.39,33.74,80.32c11.07,3,22.19,5.87,33.29,8.77,7.4,1.94,14.84,3.71,22.2,5.82,8.57,2.46,16.89,5.58,24,11.15A28.87,28.87,0,0,1,122,117.85c3.79,9.15,5.14,18.78,5.93,28.53,1.07,13.37,2.25,26.72,3.42,40.08.77,8.8,1.59,17.6,2.39,26.41a47.64,47.64,0,0,0,3.48,14.31q.72.82,1.44,1.68a7.11,7.11,0,0,0,2.5.49c2.3,0,4.26-1.39,5.74-4.23,2.21-4.23,4.29-8.52,6.35-12.83,4-8.27,7.86-16.58,11.8-24.86q7-14.75,14-29.49Q187,141.48,194.85,125q8.87-18.65,17.69-37.3Q223.42,64.85,234.35,42q7.06-14.83,14.06-29.68c1.43-3,2.11-6.09,1.12-9.36-.48-.57-1-1.12-1.44-1.68A10.33,10.33,0,0,0,242.95,0Z"/></g></g></svg>