<svg xmlns="http://www.w3.org/2000/svg" viewBox="0 0 27.5 28.38"><defs><style>.cls-1{fill:#fff;}</style></defs><title>Asset 20</title><g id="Layer_2" data-name="Layer 2"><g id="Layer_1-2" data-name="Layer 1"><path class="cls-1" d="M13.74,15.19a7.6,7.6,0,1,1,7.6-7.59A7.61,7.61,0,0,1,13.74,15.19Zm0-14.06A6.47,6.47,0,1,0,20.2,7.6,6.47,6.47,0,0,0,13.74,1.13Z"/><path class="cls-1" d="M26.92,28.38a.57.57,0,0,1-.57-.57,12.61,12.61,0,1,0-25.23,0,.57.57,0,1,1-1.13,0A13.76,13.76,0,0,1,13.75,14.06,13.76,13.76,0,0,1,27.5,27.81.58.58,0,0,1,26.92,28.38Z"/></g></g></svg>