<svg xmlns="http://www.w3.org/2000/svg" viewBox="0 0 10.15 10.15"><defs><style>.cls-1{fill:#fff;stroke:#fff;stroke-miterlimit:10;}</style></defs><title>plus</title><g id="Layer_2" data-name="Layer 2"><g id="Layer_1-2" data-name="Layer 1"><path class="cls-1" d="M5.31,4.84h4.1a.24.24,0,0,1,.24.24.23.23,0,0,1-.25.22H5.49c-.14,0-.19,0-.18.18,0,1.27,0,2.53,0,3.8a1,1,0,0,1,0,.16.23.23,0,0,1-.25.2.21.21,0,0,1-.21-.23c0-.29,0-.58,0-.87,0-1,0-2,0-3.05,0-.15,0-.19-.19-.19H.73A.21.21,0,0,1,.5,5.09a.22.22,0,0,1,.19-.25.69.69,0,0,1,.17,0H4.6c.24,0,.24,0,.24-.23q0-1.85,0-3.71s0-.06,0-.09c0-.2.09-.31.23-.3s.23.11.23.31q0,1.87,0,3.74C5.31,4.64,5.31,4.73,5.31,4.84Z"/></g></g></svg>