<svg xmlns="http://www.w3.org/2000/svg" viewBox="0 0 51.76 51.67"><defs><style>.cls-1{opacity:0.02;}</style></defs><title>Asset 1</title><g id="Layer_2" data-name="Layer 2"><g id="Layer_1-2" data-name="Layer 1"><path d="M16.12,18.89c.44.47.88.92,1.32,1.37s.31.44.13.86-.47,1.12-.68,1.69a.66.66,0,0,1-.69.48c-.64,0-1.28,0-1.9,0a11.37,11.37,0,0,0,0,4.72h1.85c.49,0,.59.09.78.56s.42,1.05.67,1.55a.59.59,0,0,1-.12.76c-.45.46-.88.94-1.35,1.45.22.29.48.64.76,1a12.27,12.27,0,0,0,2.25,2.07.35.35,0,0,0,.53,0c.41-.41.85-.81,1.28-1.21a.62.62,0,0,1,.82-.07,13.41,13.41,0,0,0,1.62.66c.47.16.57.24.58.75v1.82a.36.36,0,0,0,0,.11,12.9,12.9,0,0,0,4.16,0V35.26a.52.52,0,0,1,.45-.52A5.45,5.45,0,0,0,30.42,34a.57.57,0,0,1,.81.13c.41.4.82.81,1.24,1.2a.35.35,0,0,0,.32.07A11.19,11.19,0,0,0,36,32.26c-.42-.45-.82-.89-1.24-1.32s-.34-.46-.14-.89.47-1.07.68-1.62A.61.61,0,0,1,35.9,28c.64,0,1.28,0,2,0a12.29,12.29,0,0,0,0-4.72H36.43c-1,0-1,.14-1.37-1A12,12,0,0,0,34.51,21a.56.56,0,0,1,.12-.71l1.43-1.41a11.61,11.61,0,0,0-1.9-2.22c-.37-.34-.79-.63-1.18-1-.22-.18-.36-.14-.55,0-.39.4-.81.78-1.22,1.17s-.45.26-.82.1c-.57-.25-1.16-.48-1.75-.69-.34-.13-.47-.25-.48-.63,0-.58,0-1.16,0-1.73,0-.2-.08-.27-.26-.29a12.74,12.74,0,0,0-3.7,0c-.19,0-.25.11-.25.3,0,.62,0,1.24,0,1.86,0,.39-.2.63-.51.63s-.51-.23-.51-.62c0-.79,0-1.58,0-2.38a.59.59,0,0,1,.48-.64,10,10,0,0,1,3.13-.28,17.21,17.21,0,0,1,2,.24c.53.1.62.26.62.82s0,1,0,1.53c0,.2.06.28.26.34a7.54,7.54,0,0,1,1,.42.31.31,0,0,0,.42-.07l1.35-1.27a.56.56,0,0,1,.8-.06,14.22,14.22,0,0,1,4,3.95c.32.48.3.61-.09,1s-.76.78-1.16,1.15a.33.33,0,0,0-.08.46A5.41,5.41,0,0,1,36,22c.07.26.2.31.44.3.57,0,1.13,0,1.7,0a.56.56,0,0,1,.65.53,13.81,13.81,0,0,1,0,5.76.52.52,0,0,1-.6.47c-.61,0-1.21,0-1.82,0a.28.28,0,0,0-.33.23c-.11.3-.26.59-.37.9a.43.43,0,0,0,.08.35c.38.4.79.78,1.19,1.17a.54.54,0,0,1,.1.81,13.25,13.25,0,0,1-4.13,4.1.52.52,0,0,1-.71-.07c-.43-.42-.86-.83-1.28-1.26a.35.35,0,0,0-.48-.08,7.07,7.07,0,0,1-1,.4.31.31,0,0,0-.26.36c0,.56,0,1.11,0,1.67,0,.41-.11.59-.51.68a10.18,10.18,0,0,1-1.45.23,11.65,11.65,0,0,1-3.72-.21c-.46-.12-.56-.26-.57-.74s0-1.11,0-1.66a.28.28,0,0,0-.23-.32,7.46,7.46,0,0,1-1-.43.32.32,0,0,0-.43.07l-1.3,1.24a.57.57,0,0,1-.84.08,13.08,13.08,0,0,1-4.07-4,.5.5,0,0,1,.09-.75c.4-.4.8-.8,1.22-1.18.16-.15.24-.28.1-.49a2.21,2.21,0,0,1-.18-.42C16,29,16,29,15.3,29c-.46,0-.92,0-1.37,0a.53.53,0,0,1-.59-.49,13.45,13.45,0,0,1,0-5.72c.1-.44.23-.55.7-.55s1.13,0,1.69,0a.36.36,0,0,0,.39-.29,8.33,8.33,0,0,1,.37-.94.31.31,0,0,0-.08-.4c-.41-.4-.81-.82-1.21-1.23a.56.56,0,0,1-.09-.82,13.52,13.52,0,0,1,4.13-4.05.54.54,0,0,1,.74.1l1.7,1.66a.51.51,0,0,1,0,.78A.52.52,0,0,1,21,17c-.44-.42-.87-.85-1.31-1.26-.07-.07-.24-.12-.29-.08A11.89,11.89,0,0,0,16.12,18.89Z"/><path d="M26.07,18a7.55,7.55,0,1,1-7.56,7.53A7.65,7.65,0,0,1,26.07,18Zm0,14.08a6.54,6.54,0,1,0-6.51-6.65A6.45,6.45,0,0,0,26,32.07Z"/><g class="cls-1"><path d="M6.13,12.6c.89.91,1.76,1.81,2.62,2.71.64.65.63.87.26,1.71q-.74,1.66-1.35,3.36a1.26,1.26,0,0,1-1.36.94c-1.27,0-2.54,0-3.79,0a22.58,22.58,0,0,0,0,9.37H6.19c1,0,1.18.18,1.55,1.11s.84,2.08,1.33,3.09a1.17,1.17,0,0,1-.24,1.51C8,37.3,7.1,38.25,6.15,39.27c.44.56,1,1.27,1.52,1.94a23.83,23.83,0,0,0,4.47,4.1.68.68,0,0,0,1-.09c.83-.83,1.69-1.62,2.54-2.41a1.26,1.26,0,0,1,1.64-.15A27,27,0,0,0,20.56,44c.94.31,1.16.48,1.16,1.48,0,1.21,0,2.42,0,3.63a1,1,0,0,0,.06.21,25.43,25.43,0,0,0,8.26,0V46.07c0-.33,0-.65,0-1a1,1,0,0,1,.89-1,11,11,0,0,0,3.58-1.42,1.13,1.13,0,0,1,1.62.25c.81.81,1.62,1.61,2.46,2.39a.68.68,0,0,0,.63.13,22,22,0,0,0,6.27-6.27c-.83-.9-1.63-1.78-2.45-2.63-.66-.68-.69-.91-.29-1.76.49-1,.94-2.13,1.36-3.21a1.22,1.22,0,0,1,1.28-.87c1.27,0,2.54,0,3.87,0a24,24,0,0,0,0-9.37H46.48c-2,0-2,.27-2.73-1.93a26,26,0,0,0-1.09-2.55,1.1,1.1,0,0,1,.24-1.4c.93-.93,1.86-1.86,2.83-2.81A23.75,23.75,0,0,0,42,8.23C41.22,7.55,40.38,7,39.62,6.3c-.43-.37-.71-.28-1.08.1-.79.8-1.63,1.55-2.44,2.32-.58.54-.9.52-1.63.2C33.34,8.41,32.18,8,31,7.54c-.69-.25-1-.5-1-1.25,0-1.15,0-2.29,0-3.44,0-.39-.15-.52-.51-.58a26.3,26.3,0,0,0-7.36,0c-.37.05-.49.22-.48.6,0,1.23,0,2.46,0,3.69,0,.77-.39,1.25-1,1.26s-1-.46-1-1.23c0-1.58,0-3.15,0-4.73A1.18,1.18,0,0,1,20.63.6,19.51,19.51,0,0,1,26.86,0a31.17,31.17,0,0,1,4,.48c1.06.19,1.25.52,1.25,1.61s0,2,0,3.05c0,.39.13.55.51.67a17,17,0,0,1,2,.83.63.63,0,0,0,.85-.12c.87-.86,1.77-1.7,2.68-2.54a1.1,1.1,0,0,1,1.57-.12,28.12,28.12,0,0,1,7.89,7.86c.63,1,.61,1.21-.19,2s-1.51,1.54-2.29,2.28A.66.66,0,0,0,45,17a11.15,11.15,0,0,1,.67,1.74.73.73,0,0,0,.88.6c1.13,0,2.25,0,3.37,0a1.1,1.1,0,0,1,1.3,1.06,27.35,27.35,0,0,1,0,11.43,1,1,0,0,1-1.19.94c-1.21,0-2.42,0-3.63,0a.58.58,0,0,0-.65.46c-.22.61-.52,1.18-.72,1.8a.85.85,0,0,0,.15.69c.76.79,1.57,1.54,2.36,2.31a1.08,1.08,0,0,1,.2,1.61,26.43,26.43,0,0,1-8.19,8.15,1,1,0,0,1-1.41-.15c-.86-.83-1.72-1.64-2.55-2.49a.7.7,0,0,0-.95-.17,12.91,12.91,0,0,1-2,.8.61.61,0,0,0-.52.73c0,1.1,0,2.2,0,3.3,0,.82-.21,1.17-1,1.35a20.2,20.2,0,0,1-2.87.47,22.74,22.74,0,0,1-7.4-.44c-.92-.23-1.12-.51-1.12-1.45,0-1.1,0-2.2,0-3.3a.56.56,0,0,0-.46-.64,15.78,15.78,0,0,1-2.09-.85.62.62,0,0,0-.84.14c-.85.83-1.72,1.64-2.59,2.45a1.13,1.13,0,0,1-1.67.16,25.71,25.71,0,0,1-8.07-8,1,1,0,0,1,.17-1.5c.8-.79,1.6-1.58,2.42-2.34.33-.3.48-.56.2-1A4.09,4.09,0,0,1,6.41,34c-.52-1.26-.51-1.26-1.91-1.26H1.78a1,1,0,0,1-1.16-1,26.74,26.74,0,0,1,0-11.37c.19-.88.45-1.09,1.38-1.09,1.12,0,2.24,0,3.37,0,.46,0,.63-.17.76-.57.21-.63.47-1.25.74-1.86a.6.6,0,0,0-.15-.79c-.82-.81-1.61-1.63-2.4-2.46A1.09,1.09,0,0,1,4.11,12a27,27,0,0,1,8.21-8.06,1.08,1.08,0,0,1,1.46.2c1.13,1.1,2.26,2.2,3.37,3.31A1,1,0,0,1,17.25,9a1,1,0,0,1-1.49-.09c-.88-.83-1.73-1.69-2.62-2.52-.13-.12-.46-.23-.57-.15A23.79,23.79,0,0,0,6.13,12.6Z"/><path d="M25.91,10.8a15.18,15.18,0,0,1,15,15,15.17,15.17,0,0,1-15.12,15,15.18,15.18,0,0,1-14.89-15A15.18,15.18,0,0,1,25.91,10.8Zm-.08,28a12.81,12.81,0,0,0,13-12.66A12.84,12.84,0,0,0,26,12.79,12.83,12.83,0,0,0,12.91,25.56,12.8,12.8,0,0,0,25.83,38.77Z"/></g></g></g></svg>