<svg xmlns="http://www.w3.org/2000/svg" viewBox="0 0 27 27"><defs><style>.cls-1{fill:#75d995;}.cls-2{fill:#fff;}</style></defs><title>status_completed</title><g id="Layer_2" data-name="Layer 2"><g id="Layer_1-2" data-name="Layer 1"><path class="cls-1" d="M13.5,2A11.5,11.5,0,1,1,2,13.5,11.51,11.51,0,0,1,13.5,2m0-2A13.5,13.5,0,1,0,27,13.5,13.5,13.5,0,0,0,13.5,0Z"/><path class="cls-2" d="M18.4,9a.51.51,0,0,0-.36.15h0l-6.41,6.3L9.89,13.61a.51.51,0,0,0-.74.71l2.11,2.22a.51.51,0,0,0,.36.16h0a.51.51,0,0,0,.36-.15l6.78-6.67A.51.51,0,0,0,18.4,9Z"/></g></g></svg>