<svg xmlns="http://www.w3.org/2000/svg" viewBox="0 0 21 21"><defs><style>.cls-1,.cls-2{fill:#029f56;}.cls-2{stroke:#029f56;stroke-miterlimit:10;stroke-width:0.75px;}</style></defs><title>Asset 5</title><g id="Layer_2" data-name="Layer 2"><g id="Layer_1-2" data-name="Layer 1"><path class="cls-1" d="M10.5.75A9.75,9.75,0,1,1,.75,10.5,9.76,9.76,0,0,1,10.5.75m0-.75A10.5,10.5,0,1,0,21,10.5,10.5,10.5,0,0,0,10.5,0Z"/><path class="cls-2" d="M14,7.12l-5,4.9L7.69,10.58a.4.4,0,0,0-.58.55l1.64,1.73A.4.4,0,0,0,9,13H9a.4.4,0,0,0,.28-.11l5.27-5.19A.4.4,0,0,0,14,7.11Z"/></g></g></svg>