<svg xmlns="http://www.w3.org/2000/svg" viewBox="0 0 43.21 34.2"><defs><style>.cls-1{fill:#fa615b;}</style></defs><title>Asset 6</title><g id="Layer_2" data-name="Layer 2"><g id="Layer_1-2" data-name="Layer 1"><path class="cls-1" d="M22.42,0a15,15,0,0,0-4.06.58A13.85,13.85,0,0,0,13.89,2.7,9,9,0,0,0,10,9,10.66,10.66,0,0,0,2.13,13.4,10.37,10.37,0,0,0,.29,22.19a10.77,10.77,0,0,0,10.44,8.4q.49,0,1,0V28.86c-.83-.07-1.64-.09-2.42-.21A9,9,0,0,1,10.65,10.8c.75,0,1.06-.32,1.08-1.05a6.38,6.38,0,0,1,1.61-4.07,10.66,10.66,0,0,1,4.77-3.12,13.12,13.12,0,0,1,4.31-.75,11.34,11.34,0,0,1,9.37,5A13.19,13.19,0,0,1,34.2,15c0,.85.26,1.12,1.11,1.18a6.3,6.3,0,0,1,4.1,10.88A6.27,6.27,0,0,1,35,28.8H32.43v1.72c.78,0,1.55,0,2.32,0a12.36,12.36,0,0,0,1.35-.06,8.08,8.08,0,0,0,1-15.86c-.34-.08-.68-.14-1-.2-.16-1.17-.25-2.31-.49-3.41A13.66,13.66,0,0,0,22.42,0Z"/><path class="cls-1" d="M24.32,15.3l-4.43,0a1.24,1.24,0,0,0-.78.32q-2.2,2.15-4.35,4.35a1.37,1.37,0,0,0-.32.78c-.05.53,0,1.06,0,1.59q0,5.35,0,10.71c0,.81.31,1.12,1.12,1.12h12.1c.86,0,1.16-.3,1.16-1.17q0-4.13,0-8.26t0-8.43c0-.7-.31-1-1-1Zm-6,7.2h2.19c.73,0,1.06-.33,1.06-1.05,0-1.43,0-2.86,0-4.31H27V32.36H16.24V22.5h2.11Zm-.49-1.8H16.71l3.1-3.09c0,1,0,1.93,0,2.9,0,.07-.13.18-.21.18Z"/><path class="cls-1" d="M21.61,23.39a1.11,1.11,0,0,0-.76.39l-2.47,2.47a.91.91,0,0,0-.1,1.38.84.84,0,0,0,.6.27,1.12,1.12,0,0,0,.77-.37l1.05-1.06V27c0,1.17,0,2.33,0,3.5a.92.92,0,0,0,.9,1h0a.93.93,0,0,0,.9-1c0-.17,0-.34,0-.51V26.6l.11-.06c.32.33.63.67,1,1a1.08,1.08,0,0,0,.75.35.85.85,0,0,0,.59-.25.9.9,0,0,0-.07-1.37l-2.5-2.5a1.07,1.07,0,0,0-.74-.38Z"/></g></g></svg>