<svg xmlns="http://www.w3.org/2000/svg" viewBox="0 0 22 22"><defs><style>.cls-1{fill:#d82e3a;}.cls-2{fill:none;stroke:#d82e3a;stroke-miterlimit:10;}</style></defs><title>Asset 4</title><g id="Layer_2" data-name="Layer 2"><g id="Layer_1-2" data-name="Layer 1"><path class="cls-1" d="M11.57,9.88c0,.88,0,1.76,0,2.64a.56.56,0,0,1-.49.56.56.56,0,0,1-.63-.4.71.71,0,0,1,0-.2q0-2.6,0-5.2a.57.57,0,0,1,1.13-.19.93.93,0,0,1,0,.24Q11.58,8.61,11.57,9.88Z"/><path class="cls-1" d="M11.57,14.71a.58.58,0,1,1-.57-.64A.57.57,0,0,1,11.57,14.71Z"/><circle class="cls-2" cx="11" cy="11" r="10.5"/></g></g></svg>