<svg xmlns="http://www.w3.org/2000/svg" viewBox="0 0 30.38 28.35"><defs><style>.cls-1{fill:#9098b8;stroke:#9098b8}</style></defs><title>Home</title><g id="Layer_2" data-name="Layer 2"><g id="Layer_1-2" data-name="Layer 1"><path class="cls-1" d="M11.13,18.25h8.11v9.08h6.07V15.92a1.31,1.31,0,0,1,0-.28.5.5,0,0,1,1,0,1.21,1.21,0,0,1,0,.19V28.14c0,.06,0,.12,0,.2H18.23V19.27H12.15v9.08H4.05V16a2.81,2.81,0,0,1,0-.29.51.51,0,0,1,1,0,2.09,2.09,0,0,1,0,.25V27.33h6.07Z"/><path class="cls-1" d="M15.13,1.19a3.14,3.14,0,0,1-.23.33L1.05,15.37c-.37.37-.64.43-.89.19S0,15,.34,14.65L14.57.42c.56-.56.69-.56,1.25,0l8.5,8.5,5.8,5.79a.6.6,0,0,1,.23.64.51.51,0,0,1-.9.14l-2-2L15.36,1.4A2.37,2.37,0,0,1,15.13,1.19Z"/><path class="cls-1" d="M24.3,2H19.75a.49.49,0,0,1-.51-.5.49.49,0,0,1,.5-.5H25.3c0,.12,0,.22,0,.32V6.43c0,.43-.17.66-.5.67s-.51-.24-.51-.66Z"/></g></g></svg>