<svg xmlns="http://www.w3.org/2000/svg" viewBox="0 0 17.39 22.7"><defs><style>.cls-1{fill:#fa615b;stroke:#fa615b;stroke-miterlimit:10;}</style></defs><title>Asset 5</title><g id="Layer_2" data-name="Layer 2"><g id="Layer_1-2" data-name="Layer 1"><path class="cls-1" d="M8.7,22.2a1,1,0,0,1-.81-.42L2.35,13.82A8.06,8.06,0,0,1,.5,8.66a8.19,8.19,0,1,1,15.36,4,1.08,1.08,0,0,1-.1.18,9.26,9.26,0,0,1-.65.93l-5.59,8A1,1,0,0,1,8.7,22.2Zm0-20.8a7.29,7.29,0,0,0-7.3,7.27A7.19,7.19,0,0,0,3,13.26l0,0,5.55,8a.1.1,0,0,0,.08,0,.11.11,0,0,0,.08,0l5.61-8.05,0,0a8.6,8.6,0,0,0,.6-.86v0h0l0-.08A7.26,7.26,0,0,0,8.7,1.39Z"/><path class="cls-1" d="M8.56,13.24a4.58,4.58,0,1,1,4.59-4.58A4.59,4.59,0,0,1,8.56,13.24ZM8.56,5a3.68,3.68,0,1,0,3.7,3.68A3.69,3.69,0,0,0,8.56,5Z"/></g></g></svg>