<svg xmlns="http://www.w3.org/2000/svg" xmlns:xlink="http://www.w3.org/1999/xlink" viewBox="0 0 18.04 19.7"><defs><style>.cls-1{opacity:0.9;}.cls-2,.cls-3{stroke:#9098b8;stroke-miterlimit:10;}.cls-2{fill:url(#linear-gradient);}.cls-3{fill:url(#linear-gradient-2);}</style><linearGradient id="linear-gradient" x1="0.5" y1="13.47" x2="17.54" y2="13.47" gradientUnits="userSpaceOnUse"><stop offset="0" stop-color="#2b5876"/><stop offset="1" stop-color="#4e4376"/></linearGradient><linearGradient id="linear-gradient-2" x1="1.79" y1="4.31" x2="16.26" y2="4.31" xlink:href="#linear-gradient"/></defs><title>Asset 2</title><g id="Layer_2" data-name="Layer 2"><g id="Layer_1-2" data-name="Layer 1"><g class="cls-1"><path class="cls-2" d="M17.15,19.2H.88a.38.38,0,0,1-.38-.38V8.14a.38.38,0,0,1,.38-.38H17.15a.38.38,0,0,1,.38.38V18.81A.38.38,0,0,1,17.15,19.2ZM1.27,18.42h15.5V8.52H1.27Z"/><path class="cls-3" d="M15.87,8.12a.38.38,0,0,1-.38-.38,6.47,6.47,0,1,0-12.93,0,.38.38,0,0,1-.77,0,7.24,7.24,0,1,1,14.47,0A.39.39,0,0,1,15.87,8.12Z"/></g></g></g></svg>