<svg xmlns="http://www.w3.org/2000/svg" viewBox="0 0 42.3 42.3"><defs><style>.cls-1{fill:#fa615b;}.cls-2{fill:#fff;stroke:#fff;stroke-miterlimit:10;stroke-width:0.75px;}</style></defs><title>Asset 2</title><g id="Layer_2" data-name="Layer 2"><g id="Layer_1-2" data-name="Layer 1"><circle class="cls-1" cx="21.15" cy="21.15" r="21.15"/><path class="cls-2" d="M28.53,19.13a.38.38,0,0,1-.27-.11l-7-6.74a.38.38,0,0,1,.53-.55l7,6.74a.38.38,0,0,1,0,.54A.37.37,0,0,1,28.53,19.13Z"/><path class="cls-2" d="M21.56,25.87a.39.39,0,0,1-.28-.12.38.38,0,0,1,0-.54l6.29-6.08H16.92A5.9,5.9,0,0,0,11,25v.47a.38.38,0,0,1-.77,0V25a6.66,6.66,0,0,1,6.66-6.66H28.53a.38.38,0,0,1,.36.24.39.39,0,0,1-.09.42l-7,6.74A.39.39,0,0,1,21.56,25.87Z"/></g></g></svg>