<svg xmlns="http://www.w3.org/2000/svg" viewBox="0 0 42.3 42.3"><defs><style>.cls-1{fill:#fefefe;opacity:0.1;}.cls-2{fill:#fff;}</style></defs><title>NEXT</title><g id="Layer_2" data-name="Layer 2"><g id="Layer_1-2" data-name="Layer 1"><circle class="cls-1" cx="21.15" cy="21.15" r="21.15"/><path class="cls-2" d="M29.09,19.26a1,1,0,0,0,.14-.22s0,0,0-.06a.85.85,0,0,0,0-.22v0h0a.7.7,0,0,0-.05-.25h0l0-.06a.66.66,0,0,0-.12-.17s0,0,0,0l-7-6.75a.75.75,0,0,0-1.07,0,.76.76,0,0,0,0,1.07L26.66,18H16.92a7,7,0,0,0-7,7v.47a.76.76,0,0,0,1.51,0V25a5.52,5.52,0,0,1,5.52-5.51h9.74L21,24.94A.76.76,0,0,0,21,26a.73.73,0,0,0,.54.23.79.79,0,0,0,.53-.22l7-6.75h0Z"/></g></g></svg>