<svg xmlns="http://www.w3.org/2000/svg" viewBox="0 0 27.09 27.92"><defs><style>.cls-1{fill:#fa615b;stroke:#fa615b;stroke-miterlimit:10;}</style></defs><title>Asset 7</title><g id="Layer_2" data-name="Layer 2"><g id="Layer_1-2" data-name="Layer 1"><path class="cls-1" d="M13.53,14.91a7.21,7.21,0,1,1,7.21-7.2A7.22,7.22,0,0,1,13.53,14.91Zm0-13.34a6.13,6.13,0,1,0,6.13,6.14A6.14,6.14,0,0,0,13.53,1.57Z"/><path class="cls-1" d="M26,27.42a.54.54,0,0,1-.54-.54,12,12,0,0,0-23.93,0,.54.54,0,1,1-1.07,0,13,13,0,0,1,13-13,13,13,0,0,1,13,13A.55.55,0,0,1,26,27.42Z"/></g></g></svg>