<svg xmlns="http://www.w3.org/2000/svg" xmlns:xlink="http://www.w3.org/1999/xlink" viewBox="0 0 20.68 21.31"><defs><style>.cls-1,.cls-2{stroke:#9098b8;stroke-miterlimit:10;}.cls-1{fill:url(#linear-gradient);}.cls-2{fill:url(#linear-gradient-2);}</style><linearGradient id="linear-gradient" x1="4.89" y1="5.94" x2="15.77" y2="5.94" gradientUnits="userSpaceOnUse"><stop offset="0" stop-color="#2b5876"/><stop offset="1" stop-color="#4e4376"/></linearGradient><linearGradient id="linear-gradient-2" x1="0.5" y1="15.68" x2="20.18" y2="15.68" xlink:href="#linear-gradient"/></defs><title>Asset 1</title><g id="Layer_2" data-name="Layer 2"><g id="Layer_1-2" data-name="Layer 1"><path class="cls-1" d="M10.33,11.37a5.44,5.44,0,1,1,5.44-5.43A5.44,5.44,0,0,1,10.33,11.37Zm0-10.06A4.63,4.63,0,1,0,15,5.94,4.63,4.63,0,0,0,10.33,1.31Z"/><path class="cls-2" d="M19.77,20.81a.41.41,0,0,1-.4-.4,9,9,0,0,0-18.05,0,.4.4,0,1,1-.81,0,9.84,9.84,0,0,1,9.84-9.84,9.84,9.84,0,0,1,9.84,9.84A.42.42,0,0,1,19.77,20.81Z"/></g></g></svg>