<svg xmlns="http://www.w3.org/2000/svg" viewBox="0 0 16.95 16.96"><defs><style>.cls-1{fill:#9098b8;stroke:#9098b8;stroke-miterlimit:10;}</style></defs><title>Asset 4</title><g id="Layer_2" data-name="Layer 2"><g id="Layer_1-2" data-name="Layer 1"><path class="cls-1" d="M3.69,16.46a2.16,2.16,0,0,1-1.56-.52l-.3-.29A3.17,3.17,0,0,1,.5,13.43a2.67,2.67,0,0,1,1.2-1.89A3.91,3.91,0,0,1,4,10.45a2.58,2.58,0,0,1,1.81,1l.17.17a.26.26,0,0,0,.2.07c.34,0,1.2-.3,3.23-2.33A14.8,14.8,0,0,0,11.3,7.18c.39-.59.52-1.05.35-1.22l-.17-.17a2.86,2.86,0,0,1-1-1.58A3.46,3.46,0,0,1,11.53,1.7a2.61,2.61,0,0,1,2-1.2,3.28,3.28,0,0,1,2.16,1.33l.29.3a2.19,2.19,0,0,1,.52,1.6A7,7,0,0,1,15.95,6a17.47,17.47,0,0,1-4,5.89,19,19,0,0,1-4.56,3.43A8.39,8.39,0,0,1,3.69,16.46ZM4,11.17a3.35,3.35,0,0,0-1.83.93,2.06,2.06,0,0,0-.93,1.36c0,.61.57,1.18,1.1,1.68l.31.3a1.51,1.51,0,0,0,1.05.31,7.79,7.79,0,0,0,3.35-1,18.42,18.42,0,0,0,4.38-3.3A16.79,16.79,0,0,0,15.28,5.8c.67-1.77.5-2.81.15-3.15l-.3-.31c-.49-.52-1.05-1.1-1.65-1.1a2,2,0,0,0-1.4.93,3,3,0,0,0-.92,2A2.3,2.3,0,0,0,12,5.29l.17.17c.45.45.36,1.16-.26,2.11a15.53,15.53,0,0,1-2,2.34C8.16,11.65,7,12.46,6.16,12.46a1,1,0,0,1-.71-.28L5.27,12C4.76,11.47,4.44,11.17,4,11.17Z"/><path class="cls-1" d="M1.44,14.6a.36.36,0,0,1,.48.17.36.36,0,0,1-.17.48h0"/></g></g></svg>