<svg xmlns="http://www.w3.org/2000/svg" viewBox="0 0 42.3 42.3"><defs><style>.cls-1{fill:#fa615b;}.cls-2{fill:#fff;}</style></defs><title>PREV hover</title><g id="Layer_2" data-name="Layer 2"><g id="Layer_1-2" data-name="Layer 1"><circle class="cls-1" cx="21.15" cy="21.15" r="21.15"/><path class="cls-2" d="M10.09,19.26A1,1,0,0,1,10,19s0,0,0-.06a.85.85,0,0,1,0-.22v0h0a.7.7,0,0,1,0-.25h0l0-.06a.66.66,0,0,1,.12-.17s0,0,0,0l7-6.75a.75.75,0,0,1,1.07,0,.76.76,0,0,1,0,1.07L12.52,18h9.74a7,7,0,0,1,7,7v.47a.76.76,0,0,1-.76.75.75.75,0,0,1-.75-.75V25a5.52,5.52,0,0,0-5.52-5.51H12.52l5.63,5.43a.76.76,0,0,1,0,1.08.73.73,0,0,1-.54.23.79.79,0,0,1-.53-.22l-7-6.75a0,0,0,0,1,0,0h0Z"/></g></g></svg>